<svg width="25" height="30" viewBox="0 0 25 30" fill="none" xmlns="http://www.w3.org/2000/svg">
<path d="M21.0882 3.8415C20.9842 3.8415 20.9565 3.91778 20.8871 3.91084C19.2373 3.80166 17.5804 3.88544 15.95 4.16047C13.0365 4.59231 10.2038 5.45707 7.5458 6.72611C5.55695 7.66422 3.69335 8.84761 1.99847 10.2487C1.94003 10.2931 1.89315 10.351 1.86177 10.4173C1.83039 10.4837 1.81544 10.5567 1.81819 10.63C1.80079 12.0581 1.85633 13.4861 1.98461 14.9084C2.16465 17.0558 2.83222 19.1338 3.93651 20.9843C5.04079 22.8348 6.55268 24.409 8.3571 25.587C9.58647 26.4137 10.8725 27.1528 12.2056 27.799C12.2448 27.8209 12.2889 27.8324 12.3338 27.8324C12.3787 27.8324 12.4229 27.8209 12.4621 27.799C14.7322 26.7613 16.8225 25.3686 18.6543 23.6732C20.6875 21.6808 22.0434 19.1 22.5305 16.2953C22.7851 14.8464 22.9035 13.3769 22.8842 11.9059C22.8842 9.4443 22.8842 6.98268 22.8842 4.52105C22.8842 4.23675 22.8842 4.22981 23.1685 4.31996C23.6123 4.46558 24.056 4.61813 24.5068 4.75681C24.5591 4.76534 24.6059 4.79416 24.637 4.837C24.6682 4.87985 24.6812 4.93326 24.6732 4.98564C24.6732 7.87718 24.7495 10.7687 24.6108 13.6533C24.5391 16.3112 23.8683 18.9185 22.6484 21.2809C21.4657 23.4353 19.8053 25.2902 17.7945 26.7034C16.1298 27.9121 14.3508 28.9549 12.4829 29.8169C12.4393 29.8405 12.3904 29.8529 12.3408 29.8529C12.2911 29.8529 12.2423 29.8405 12.1986 29.8169C9.82095 28.7612 7.59784 27.3873 5.59037 25.7326C3.18274 23.7113 1.4704 20.9851 0.694852 17.9387C0.222207 16.0312 -0.0107287 14.0722 0.00143606 12.107C0.00143606 11.2194 0.00143606 10.3249 0.00143606 9.43737C-0.00458068 9.36823 0.00838327 9.29876 0.038931 9.23644C0.0694788 9.17412 0.116452 9.12132 0.17479 9.08373C2.65805 7.14574 5.47952 5.68563 8.49578 4.77761C11.7049 3.76186 15.0716 3.33662 18.4324 3.52253C19.3231 3.57734 20.2099 3.68384 21.0882 3.8415Z" fill="#234090"/>
<path d="M24.3112 3.09932L23.5207 2.86356C21.8775 2.38014 20.1832 2.09155 18.4726 2.00372C13.2446 1.70282 8.03456 2.84463 3.41161 5.30438C2.27981 5.89772 1.2051 6.59408 0.201091 7.38463C0.152552 7.38463 0.110947 7.48171 0.0485391 7.46091C-0.0138683 7.44011 0.0485391 7.34303 0.0485391 7.28062C0 5.9978 0 4.72191 0 3.46683C0 3.27268 0.110947 3.20333 0.242696 3.13399C4.19573 0.951933 8.66149 -0.130386 13.1749 -0.000248683C16.8848 0.122803 20.5207 1.07028 23.8188 2.77342L24.2418 3.00224C24.2418 3.00224 24.2696 3.02305 24.3112 3.09932Z" fill="#F9C83E"/>
<path d="M16.5531 15.3729C16.5531 15.3313 16.5531 15.2897 16.5531 15.2412C16.5566 15.1996 16.5566 15.1579 16.5531 15.1164C16.5531 15.0678 16.5531 15.0193 16.5531 14.9707C16.5531 14.9222 16.5531 14.8945 16.5531 14.8598C16.5531 14.8251 16.5531 14.8113 16.5531 14.7835C16.5531 14.7558 16.5531 14.735 16.5531 14.7072V14.5824C16.557 14.5525 16.557 14.5222 16.5531 14.4923C16.5531 14.3744 16.5185 14.2565 16.4977 14.1456C16.4944 14.0971 16.4944 14.0484 16.4977 14C16.463 13.8543 16.4352 13.7087 16.4006 13.5631C16.2441 12.9486 16.0377 12.348 15.7834 11.7672L17.8637 8.86868C17.6815 8.72452 17.4917 8.59026 17.2951 8.4665L15.3188 11.0252C14.5608 9.55602 13.5703 8.21898 12.3857 7.0658H12.2817C11.0974 8.21116 10.1006 9.53557 9.32773 10.9905L7.57339 8.5081C7.38616 8.63985 7.19201 8.7716 7.01172 8.91028L8.98102 11.6839C8.70999 12.2768 8.48962 12.8915 8.32228 13.5215C8.32228 13.5215 8.32228 13.5839 8.32228 13.6186V13.7087C8.32228 13.7781 8.32228 13.8405 8.27374 13.9098C8.27631 13.9537 8.27631 13.9977 8.27374 14.0416C8.27374 14.097 8.27374 14.1525 8.27374 14.2149C8.27374 14.312 8.23907 14.4021 8.2252 14.4992V14.6171V14.7003C8.22126 14.7186 8.22126 14.7375 8.2252 14.7558C8.2252 14.7558 8.2252 14.8043 8.2252 14.8321C8.2252 14.8598 8.2252 14.9014 8.2252 14.9361C8.22143 14.9822 8.22143 15.0286 8.2252 15.0748C8.22177 15.1093 8.22177 15.1442 8.2252 15.1788C8.22179 15.2064 8.22179 15.2343 8.2252 15.262C8.22176 15.2919 8.22176 15.3222 8.2252 15.3521V15.4076C8.2215 15.4375 8.2215 15.4678 8.2252 15.4977V15.5463C8.2252 15.6642 8.2252 15.782 8.2252 15.9069V15.9485C8.22208 15.9738 8.22208 15.9994 8.2252 16.0247V16.1842C8.2252 16.1842 8.2252 16.2258 8.2252 16.2466C8.22176 16.2882 8.22176 16.3299 8.2252 16.3714C8.2252 16.42 8.2252 16.4616 8.2252 16.5032V16.6904C8.2252 16.7389 8.2252 16.7875 8.2252 16.8291C8.22146 16.8799 8.22146 16.9309 8.2252 16.9816C8.22858 17.0162 8.22858 17.0511 8.2252 17.0857C8.2213 17.1387 8.2213 17.1921 8.2252 17.2451C8.2252 17.3561 8.2252 17.4601 8.27374 17.5641C8.32228 17.6681 8.27374 17.6127 8.27374 17.6404C8.27374 17.6681 8.27374 17.6959 8.27374 17.7167L8.31534 17.9247C8.31534 17.9732 8.31534 18.0218 8.31534 18.0703V18.209V18.313C8.31857 18.3545 8.31857 18.3963 8.31534 18.4378L8.35001 18.5626C8.34603 18.6065 8.34603 18.6506 8.35001 18.6944C8.35001 18.736 8.35001 18.7776 8.35001 18.8123L8.43322 19.1035C8.46789 19.2144 8.49563 19.3185 8.5303 19.4225C8.90604 20.5868 9.41075 21.7056 10.035 22.7578L8.59271 24.838H8.62738C8.82847 24.9282 9.03649 25.0114 9.24452 25.0877L10.4303 23.4096C10.9756 24.2149 11.5955 24.9671 12.2817 25.6563H12.3857C13.0802 24.9279 13.6961 24.1283 14.2232 23.2709L15.513 25.0877C15.7349 25.0045 15.9499 24.9143 16.1648 24.8103L14.6116 22.6191C15.1883 21.6118 15.6533 20.5446 15.9984 19.4363C16.0178 19.3842 16.034 19.3309 16.0469 19.2769L16.2133 18.6666C16.2133 18.625 16.2133 18.5834 16.2133 18.5418C16.2133 18.5002 16.2133 18.4656 16.2133 18.424C16.2133 18.3823 16.2134 18.3061 16.248 18.2506C16.2827 18.0842 16.3174 17.9178 16.3451 17.7444C16.3484 17.6959 16.3484 17.6473 16.3451 17.5988C16.3451 17.4809 16.3798 17.363 16.4006 17.2451C16.4214 17.1273 16.4006 17.155 16.4006 17.1065C16.4039 17.0696 16.4039 17.0324 16.4006 16.9955C16.3972 16.9517 16.3972 16.9076 16.4006 16.8638C16.3975 16.8176 16.3975 16.7713 16.4006 16.7251C16.4006 16.4408 16.4422 16.1565 16.4422 15.8791C16.4422 15.782 16.4422 15.685 16.4422 15.5879C16.4422 15.4908 16.5531 15.4423 16.5531 15.3729ZM11.935 8.14753V15.255C11.4145 14.1401 11.1448 12.9247 11.1448 11.6943C11.1448 10.464 11.4145 9.24855 11.935 8.13366V8.14753ZM11.935 24.6231C11.4145 23.5082 11.1448 22.2928 11.1448 21.0624C11.1448 19.832 11.4145 18.6166 11.935 17.5017V24.6231ZM12.7393 24.6231V17.5017C13.2556 18.6177 13.5231 19.8327 13.5231 21.0624C13.5231 22.2921 13.2556 23.507 12.7393 24.6231ZM12.7393 15.2689V8.14753C13.2556 9.26356 13.5231 10.4785 13.5231 11.7082C13.5231 12.9379 13.2556 14.1529 12.7393 15.2689Z" fill="#FDCD08"/>
<path d="M16.5531 15.3728C16.5531 15.3311 16.5531 15.2895 16.5531 15.241C16.5566 15.1995 16.5566 15.1577 16.5531 15.1162C16.5531 15.0677 16.5531 15.0191 16.5531 14.9706C16.5531 14.922 16.5531 14.8943 16.5531 14.8596C16.5531 14.825 16.5531 14.8111 16.5531 14.7834C16.5531 14.7556 16.5531 14.7348 16.5531 14.7071V14.5823C16.557 14.5523 16.557 14.522 16.5531 14.4921C16.5531 14.3742 16.5185 14.2564 16.4977 14.1454C16.4944 14.0969 16.4944 14.0483 16.4977 13.9998C16.463 13.8542 16.4352 13.7086 16.4006 13.5629C16.2441 12.9485 16.0377 12.3478 15.7834 11.767L17.8637 8.86851C17.6815 8.72435 17.4917 8.59009 17.2951 8.46633L15.3188 11.025C14.5608 9.55585 13.5703 8.21881 12.3857 7.06563L12.3372 7.01709L12.2817 7.06563C11.0974 8.211 10.1006 9.53541 9.32773 10.9904L7.57339 8.50793L7.01172 8.91012L8.98102 11.6838C8.70999 12.2766 8.48962 12.8913 8.32228 13.5213C8.32228 13.5213 8.32228 13.5837 8.32228 13.6184V13.7086C8.32228 13.7779 8.32228 13.8403 8.27374 13.9096C8.27631 13.9535 8.27631 13.9975 8.27374 14.0414C8.27374 14.0969 8.27374 14.1523 8.27374 14.2147C8.27374 14.3118 8.23907 14.402 8.2252 14.499V14.6169V14.7001C8.22126 14.7184 8.22126 14.7373 8.2252 14.7556C8.2252 14.7556 8.2252 14.8042 8.2252 14.8319C8.2252 14.8596 8.2252 14.9012 8.2252 14.9359C8.22143 14.9821 8.22143 15.0284 8.2252 15.0746C8.22177 15.1092 8.22177 15.144 8.2252 15.1786C8.22179 15.2062 8.22179 15.2342 8.2252 15.2618C8.22176 15.2918 8.22176 15.322 8.2252 15.352V15.4074C8.2215 15.4374 8.2215 15.4676 8.2252 15.4976V15.5461C8.2252 15.664 8.2252 15.7819 8.2252 15.9067V15.9483C8.22208 15.9736 8.22208 15.9992 8.2252 16.0246V16.1841C8.2252 16.1841 8.2252 16.2257 8.2252 16.2465C8.22176 16.288 8.22176 16.3297 8.2252 16.3713C8.2252 16.4198 8.2252 16.4614 8.2252 16.503V16.6902C8.2252 16.7388 8.2252 16.7873 8.2252 16.8289C8.22146 16.8797 8.22146 16.9307 8.2252 16.9815C8.22858 17.0161 8.22858 17.0509 8.2252 17.0855C8.2213 17.1386 8.2213 17.1919 8.2252 17.245C8.2252 17.3559 8.2252 17.4599 8.27374 17.5639C8.32228 17.668 8.27374 17.6125 8.27374 17.6402C8.27374 17.668 8.27374 17.6957 8.27374 17.7165L8.31534 17.9245C8.31534 17.9731 8.31534 18.0216 8.31534 18.0701V18.2088V18.3128C8.31857 18.3544 8.31857 18.3961 8.31534 18.4377L8.35001 18.5625C8.34603 18.6063 8.34603 18.6504 8.35001 18.6942C8.35001 18.7358 8.35001 18.7774 8.35001 18.8121L8.43322 19.1033C8.46789 19.2143 8.49563 19.3183 8.5303 19.4223C8.90604 20.5867 9.41075 21.7054 10.035 22.7576L8.59271 24.8379H8.62738C8.82847 24.928 9.03649 25.0112 9.24452 25.0875L10.4303 23.4094C10.9756 24.2147 11.5955 24.9669 12.2817 25.6561L12.3372 25.7116L12.3857 25.6561C13.0802 24.9277 13.6961 24.1282 14.2232 23.2708L15.513 25.0875C15.7349 25.0043 15.9499 24.9142 16.1648 24.8101L14.6116 22.619C15.1883 21.6117 15.6533 20.5444 15.9984 19.4362C16.0178 19.384 16.034 19.3308 16.0469 19.2767L16.2133 18.6665C16.2133 18.6249 16.2133 18.5833 16.2133 18.5417C16.2133 18.5001 16.2133 18.4654 16.2133 18.4238C16.2133 18.3822 16.2134 18.3059 16.248 18.2504C16.2827 18.084 16.3174 17.9176 16.3451 17.7442C16.3484 17.6958 16.3484 17.6471 16.3451 17.5986C16.3451 17.4807 16.3798 17.3629 16.4006 17.245C16.4214 17.1271 16.4006 17.1548 16.4006 17.1063C16.4039 17.0694 16.4039 17.0323 16.4006 16.9953C16.3972 16.9515 16.3972 16.9074 16.4006 16.8636C16.3975 16.8174 16.3975 16.7711 16.4006 16.7249C16.4006 16.4406 16.4422 16.1563 16.4422 15.8789C16.4422 15.7819 16.4422 15.6848 16.4422 15.5877C16.4422 15.4906 16.5531 15.4421 16.5531 15.3728ZM11.935 8.14736V15.2549C11.4145 14.14 11.1448 12.9246 11.1448 11.6942C11.1448 10.4638 11.4145 9.24838 11.935 8.13349V8.14736ZM11.935 24.6229C11.4145 23.508 11.1448 22.2926 11.1448 21.0622C11.1448 19.8319 11.4145 18.6164 11.935 17.5015V24.6229ZM12.7393 24.6229V17.5015C13.2556 18.6176 13.5231 19.8326 13.5231 21.0622C13.5231 22.2919 13.2556 23.5069 12.7393 24.6229ZM12.7393 15.2687V8.14736C13.2556 9.2634 13.5231 10.4784 13.5231 11.7081C13.5231 12.9377 13.2556 14.1527 12.7393 15.2687Z" fill="#F9C83E"/>
<path d="M16.5693 15.8652C16.5693 16.1425 16.5693 16.4268 16.5277 16.7111C16.5247 16.7573 16.5247 16.8037 16.5277 16.8498C16.5243 16.8937 16.5243 16.9377 16.5277 16.9816C16.5311 17.0185 16.5311 17.0556 16.5277 17.0925C16.5277 17.1411 16.5277 17.1827 16.5277 17.2312C16.5277 17.2797 16.5277 17.467 16.4723 17.5849C16.4756 17.6333 16.4756 17.682 16.4723 17.7305C16.4723 17.9038 16.4099 18.0702 16.3752 18.2367C16.3752 18.2921 16.3752 18.3545 16.3405 18.41C16.3058 18.4655 16.3405 18.4863 16.3405 18.5279C16.3405 18.5695 16.3405 18.6111 16.3405 18.6527L16.1741 19.2629C16.1611 19.317 16.1449 19.3703 16.1256 19.4224C15.6408 19.1216 15.2422 18.7004 14.9688 18.1997C14.6954 17.699 14.5564 17.136 14.5654 16.5655C14.5248 15.9478 14.6669 15.3318 14.9739 14.7942C15.2809 14.2566 15.7393 13.8212 16.292 13.5422C16.3267 13.6879 16.3544 13.8335 16.3891 13.9791C16.3858 14.0276 16.3858 14.0762 16.3891 14.1247C16.3891 14.2357 16.4307 14.3535 16.4445 14.4714C16.4484 14.5013 16.4484 14.5316 16.4445 14.5616V14.6864C16.4445 14.6864 16.4445 14.7349 16.4445 14.7626C16.4445 14.7904 16.4445 14.8112 16.4445 14.8389C16.4445 14.8667 16.4445 14.9083 16.4445 14.9499C16.4445 14.9915 16.4445 15.0469 16.4445 15.0955C16.448 15.137 16.448 15.1788 16.4445 15.2203C16.4445 15.2688 16.4445 15.3104 16.4445 15.3521C16.4445 15.3937 16.4445 15.4838 16.4445 15.5531C16.4445 15.6225 16.5693 15.7681 16.5693 15.8652Z" fill="#234090"/>
<path d="M10.1335 16.5659C10.1607 17.135 10.0395 17.7014 9.78176 18.2096C9.52405 18.7177 9.13867 19.1501 8.66343 19.4644C8.62876 19.3604 8.60102 19.2564 8.56635 19.1454C8.53168 19.0345 8.44154 18.7086 8.38607 18.452C8.3893 18.4105 8.3893 18.3687 8.38607 18.3272V18.2232V18.0845C8.38607 18.0359 8.38607 17.9874 8.38607 17.9389L8.34446 17.7308C8.34446 17.7308 8.34446 17.6823 8.34446 17.6546C8.34446 17.6268 8.34446 17.606 8.34446 17.5783C8.34446 17.5506 8.30979 17.3703 8.29592 17.2593C8.29202 17.2062 8.29202 17.1529 8.29592 17.0998C8.29931 17.0652 8.29931 17.0304 8.29592 16.9958C8.29219 16.945 8.29219 16.8941 8.29592 16.8433C8.29592 16.8017 8.29592 16.7531 8.29592 16.7046V16.5174C8.29592 16.4758 8.29592 16.4342 8.29592 16.3856C8.29248 16.3441 8.29248 16.3023 8.29592 16.2608C8.29592 16.2608 8.29592 16.2192 8.29592 16.1984V16.0389C8.2928 16.0136 8.2928 15.988 8.29592 15.9626V15.9488C8.29592 15.824 8.29592 15.7061 8.29592 15.5882V15.5397C8.29222 15.5097 8.29222 15.4794 8.29592 15.4495V15.394C8.29248 15.3641 8.29248 15.3338 8.29592 15.3039C8.29251 15.2763 8.29251 15.2483 8.29592 15.2207C8.29249 15.1861 8.29249 15.1513 8.29592 15.1167C8.29216 15.0705 8.29216 15.0241 8.29592 14.978C8.29592 14.9433 8.29592 14.9086 8.29592 14.874C8.29592 14.8393 8.29592 14.8254 8.29592 14.7977C8.29198 14.7794 8.29198 14.7605 8.29592 14.7422V14.659V14.5411C8.29592 14.4441 8.29592 14.3539 8.34446 14.2568C8.34446 14.1944 8.34446 14.139 8.34446 14.0835C8.34704 14.0396 8.34704 13.9956 8.34446 13.9517C8.34446 13.8824 8.34446 13.82 8.393 13.7506V13.6605C8.393 13.6258 8.393 13.5912 8.393 13.5634C8.94776 13.8354 9.40931 14.2659 9.71916 14.8004C10.029 15.3349 10.1732 15.9494 10.1335 16.5659Z" fill="#234090"/>
<path d="M13.1348 16.4891C13.1307 16.6541 13.0781 16.8142 12.9834 16.9494C12.8888 17.0847 12.7564 17.189 12.6027 17.2493C12.4491 17.3096 12.2811 17.3233 12.1197 17.2886C11.9584 17.2539 11.8108 17.1724 11.6956 17.0543C11.5803 16.9362 11.5024 16.7867 11.4717 16.6245C11.441 16.4623 11.4588 16.2947 11.5228 16.1426C11.5869 15.9905 11.6944 15.8607 11.8319 15.7694C11.9694 15.6781 12.1308 15.6293 12.2958 15.6293C12.5208 15.6329 12.7352 15.7253 12.8924 15.8864C13.0496 16.0475 13.1367 16.2641 13.1348 16.4891Z" fill="#234090"/>
</svg>
